<?xml version="1.0" standalone="no"?>
<!DOCTYPE svg PUBLIC "-//W3C//DTD SVG 20010904//EN"
 "http://www.w3.org/TR/2001/REC-SVG-20010904/DTD/svg10.dtd">
<svg version="1.0" xmlns="http://www.w3.org/2000/svg"
 width="128.000000pt" height="128.000000pt" viewBox="0 0 128.000000 128.000000"
 preserveAspectRatio="xMidYMid meet">
<metadata>
Created by potrace 1.11, written by Peter Selinger 2001-2013
</metadata>
<g transform="translate(0.000000,128.000000) scale(0.100000,-0.100000)"
fill="#000000" stroke="none">
<path d="M887 1266 c-164 -59 -251 -293 -172 -460 78 -165 272 -187 398 -46
176 198 83 522 -149 520 -22 -1 -56 -7 -77 -14z m108 -38 c-16 -52 -17 -149
-1 -226 21 -106 20 -138 -8 -197 -24 -50 -48 -78 -99 -110 l-27 -17 32 68 c35
74 40 128 27 274 -8 76 7 143 42 194 27 40 45 47 34 14z"/>
<path d="M305 816 c-117 -37 -191 -118 -220 -241 -21 -89 -4 -206 43 -299 134
-269 454 -363 632 -186 108 109 126 287 45 458 -93 197 -327 323 -500 268z
m12 -217 c41 -37 145 -101 218 -135 22 -10 65 -43 95 -74 44 -44 59 -69 73
-116 19 -64 27 -154 16 -194 -6 -23 -8 -21 -28 25 -67 151 -103 195 -223 270
-117 72 -174 121 -210 178 -28 45 -58 135 -58 175 0 21 7 15 38 -34 21 -32 57
-75 79 -95z"/>
</g>
</svg>
